<svg version="1.0" xmlns="http://www.w3.org/2000/svg"
 width="521.000000pt" height="600.000000pt" viewBox="0 0 521.000000 600.000000"
 preserveAspectRatio="xMidYMid meet">
<g transform="translate(0.000000,600.000000) scale(0.100000,-0.100000)"
fill="#58a942" stroke="none">
<path d="M2334 5846 l-269 -153 -3 -1439 -2 -1439 292 -174 c251 -149 877
-519 1228 -726 58 -34 220 -130 360 -213 140 -83 372 -221 515 -305 l259 -154
106 61 c288 168 390 232 390 243 0 15 -26 17 -35 3 -4 -6 -12 -7 -18 -4 -7 4
-9 3 -4 -1 7 -8 -114 -85 -134 -85 -5 0 -9 -4 -9 -10 0 -5 -6 -10 -14 -10 -7
0 -25 -9 -40 -21 -14 -11 -26 -18 -26 -14 0 3 -10 -3 -22 -15 -12 -11 -27 -20
-33 -20 -7 0 -22 -9 -35 -20 -13 -11 -27 -20 -32 -20 -5 0 -24 -11 -41 -24
-18 -13 -42 -22 -54 -20 -32 5 -113 51 -105 59 4 4 3 5 -3 4 -5 -2 -28 8 -50
22 -60 37 -77 47 -112 65 -18 9 -33 21 -33 26 0 6 -6 8 -14 5 -8 -3 -20 1 -27
9 -7 9 -26 22 -43 31 -17 9 -36 23 -43 32 -7 9 -13 12 -13 8 0 -11 -60 25 -60
36 0 4 -4 6 -9 3 -5 -3 -19 2 -32 12 -26 20 -84 54 -206 123 -21 12 -67 40
-103 64 -36 23 -99 60 -140 81 -41 21 -80 44 -87 51 -7 6 -23 15 -36 18 -12 4
-31 15 -42 25 -11 9 -36 26 -55 36 -19 10 -42 24 -50 30 -8 6 -35 22 -60 35
-25 13 -53 30 -62 38 -10 8 -18 11 -18 7 0 -4 -9 1 -19 11 -11 10 -49 33 -86
52 -36 19 -68 38 -71 43 -3 4 -33 22 -67 39 -34 17 -76 42 -94 55 -17 13 -36
24 -40 24 -5 0 -24 11 -43 25 -18 13 -36 22 -40 20 -5 -3 -10 2 -14 10 -3 8
-12 15 -21 15 -8 0 -15 5 -15 11 0 5 -4 7 -10 4 -5 -3 -10 -2 -10 4 0 5 -9 13
-21 16 -11 4 -40 19 -62 35 -23 15 -68 41 -99 58 -31 16 -56 31 -55 33 1 2 0
3 -2 2 -2 -1 -18 9 -37 23 -18 14 -38 23 -44 19 -5 -3 -10 -2 -10 4 0 6 -19
20 -42 32 -24 12 -51 28 -60 37 -10 8 -18 12 -18 7 0 -4 -12 4 -26 19 -15 14
-35 26 -46 26 -13 0 -17 4 -12 13 4 6 4 9 0 5 -8 -7 -25 2 -102 50 l-52 32 1
1425 2 1425 55 27 c30 16 57 30 60 34 3 3 32 20 65 38 33 19 63 38 66 44 4 5
16 7 28 4 12 -3 19 -2 16 3 -3 4 2 13 10 20 8 7 15 9 15 6 0 -4 10 3 22 14 13
12 24 16 26 11 2 -6 13 -1 25 10 12 12 39 29 59 39 21 9 36 19 33 22 -3 3 3 8
14 11 12 3 42 -9 78 -30 32 -20 87 -51 123 -71 36 -19 72 -40 80 -47 25 -20
170 -96 170 -88 0 4 6 -1 13 -11 7 -9 20 -18 28 -19 9 -2 48 -23 88 -47 103
-64 152 -90 168 -90 7 0 13 -4 13 -8 0 -5 24 -21 53 -36 28 -15 70 -39 92 -52
22 -14 52 -29 68 -35 15 -6 27 -16 27 -22 0 -6 3 -8 6 -4 3 3 18 -5 32 -18 13
-13 31 -21 38 -18 8 3 14 0 14 -6 0 -6 6 -11 14 -11 8 0 16 -3 18 -8 4 -9 188
-112 200 -112 5 0 6 -5 3 -10 -4 -6 -3 -10 2 -9 12 3 60 -18 68 -30 3 -6 13
-11 21 -11 9 0 30 -11 48 -25 18 -14 36 -25 40 -25 9 0 90 -53 94 -62 2 -5 11
-8 19 -8 9 0 22 -8 30 -17 9 -11 11 -12 7 -3 -6 12 -4 12 12 -1 16 -14 46 -29
64 -33 3 -1 23 -13 46 -28 22 -14 65 -39 95 -54 30 -16 56 -32 57 -36 2 -5 8
-8 13 -8 12 0 113 -62 117 -72 2 -5 8 -6 13 -2 5 3 9 1 9 -3 0 -5 16 -15 35
-22 19 -7 33 -16 31 -20 -3 -4 0 -8 7 -8 18 0 107 -50 101 -56 -3 -3 9 -8 28
-12 18 -4 37 -14 43 -21 5 -7 39 -28 75 -47 117 -61 170 -93 165 -100 -3 -4
-2 -5 1 -3 3 3 17 1 30 -4 18 -7 24 -6 24 4 0 7 -120 82 -267 166 -148 84
-281 161 -298 170 -27 16 -317 181 -635 362 -63 36 -257 146 -430 245 -173 99
-337 192 -365 208 -53 29 -377 213 -485 275 -36 21 -79 44 -96 53 l-30 16
-270 -153z"/>
<path d="M2553 5683 c-26 -14 -74 -40 -106 -57 -32 -17 -69 -37 -82 -44 -13
-7 -34 -25 -46 -40 -20 -26 -21 -36 -18 -207 1 -99 2 -358 1 -575 0 -217 -1
-689 -1 -1049 0 -360 -3 -663 -7 -673 -3 -12 1 -28 13 -40 10 -12 12 -18 6
-14 -7 4 -13 3 -13 -2 0 -16 49 -59 88 -77 20 -10 51 -28 67 -40 17 -12 48
-32 70 -44 22 -12 58 -33 80 -46 22 -13 63 -36 90 -51 28 -14 52 -30 55 -34 5
-6 77 -48 157 -90 18 -10 30 -20 28 -24 -3 -3 -2 -4 1 -1 4 2 19 -3 33 -13 14
-9 35 -22 46 -29 31 -18 128 -76 150 -89 123 -70 209 -127 207 -135 -1 -6 2
-8 7 -5 14 9 42 -5 34 -17 -4 -6 -1 -7 7 -2 7 4 15 4 19 -1 3 -5 22 -17 41
-26 36 -19 54 -29 105 -63 47 -31 86 -53 142 -81 28 -13 56 -30 62 -38 6 -7
29 -21 51 -31 22 -10 37 -22 33 -28 -3 -6 -1 -7 5 -3 7 4 22 -2 34 -13 12 -12
25 -21 29 -21 4 0 53 -27 108 -60 56 -33 106 -60 111 -60 6 0 10 -4 10 -8 0
-5 19 -17 42 -28 22 -10 57 -30 77 -44 59 -41 117 -70 127 -62 4 4 2 -2 -6
-12 -9 -12 -10 -17 -3 -12 8 4 39 -8 75 -30 35 -20 68 -37 75 -37 7 0 10 -4 8
-8 -3 -4 3 -10 13 -14 9 -3 18 -5 18 -3 1 2 10 -4 20 -13 11 -8 40 -26 65 -39
l46 -23 77 47 c43 25 82 48 88 49 6 1 21 12 34 24 13 13 30 23 37 23 31 0 24
69 -6 70 -7 1 -27 14 -46 30 -19 16 -37 27 -41 25 -4 -3 -23 9 -41 25 -19 16
-38 30 -42 30 -5 0 -6 4 -3 9 3 5 -2 8 -12 7 -9 0 -16 5 -14 12 1 8 -2 11 -7
7 -6 -3 -32 6 -58 20 -85 46 -141 80 -160 95 -10 8 -36 24 -58 35 -22 11 -53
29 -70 41 -16 11 -76 47 -133 79 -56 31 -108 66 -116 76 -7 10 -16 16 -19 13
-3 -4 -36 11 -72 32 -36 22 -79 46 -96 55 -16 9 -35 21 -42 28 -8 6 -40 25
-73 42 -32 17 -61 34 -64 38 -3 3 -27 18 -55 33 -27 15 -49 32 -47 38 1 7 -2
9 -7 6 -5 -4 -31 5 -57 19 -26 14 -43 25 -38 25 10 0 -39 28 -94 54 -18 8 -47
26 -65 38 -35 25 -64 43 -87 54 -8 4 -42 25 -76 46 -34 21 -66 38 -71 38 -6 0
-27 13 -47 30 -21 16 -65 43 -99 61 -106 54 -127 66 -121 71 2 3 -9 8 -26 12
-21 4 -29 10 -24 18 4 7 4 10 -1 6 -4 -4 -24 4 -44 17 -19 14 -42 25 -49 25
-7 0 -10 5 -7 10 4 6 3 9 -2 8 -4 -1 -26 8 -48 20 -122 68 -140 81 -146 106
-4 15 -8 215 -8 446 -1 475 -6 450 77 389 23 -17 42 -27 42 -22 0 4 4 3 8 -4
4 -6 33 -25 64 -41 31 -17 53 -34 50 -38 -4 -4 -2 -5 3 -1 6 3 30 -8 54 -24
24 -16 50 -29 58 -29 7 0 13 -4 13 -8 0 -5 12 -15 28 -22 24 -12 128 -72 187
-107 11 -6 35 -19 53 -28 17 -10 32 -22 32 -28 0 -6 3 -8 6 -4 4 3 26 -7 50
-23 23 -17 46 -30 49 -30 4 0 30 -16 59 -35 29 -19 58 -35 65 -35 6 0 11 -4
11 -10 0 -5 9 -10 20 -10 11 0 20 -5 20 -11 0 -5 5 -7 10 -4 6 3 10 1 10 -4 0
-6 5 -11 11 -11 6 0 29 -12 52 -27 71 -47 80 -52 134 -79 29 -14 57 -32 64
-40 6 -8 15 -14 19 -14 5 0 43 -20 84 -45 42 -25 81 -45 86 -45 6 0 10 -4 10
-9 0 -5 10 -13 23 -17 12 -3 35 -16 52 -28 37 -27 64 -42 93 -56 13 -5 20 -14
17 -20 -3 -6 0 -7 9 -4 8 3 28 -3 43 -13 15 -11 36 -23 46 -26 9 -4 17 -11 17
-17 0 -5 8 -10 19 -10 10 0 24 -6 30 -13 6 -8 29 -22 51 -32 22 -10 37 -22 33
-28 -3 -6 -1 -7 6 -3 6 4 19 2 28 -6 8 -7 39 -26 68 -43 162 -92 194 -112 240
-142 27 -18 55 -33 61 -33 6 0 19 -9 28 -19 10 -11 25 -17 34 -14 9 4 13 2 9
-4 -6 -9 32 -33 53 -33 26 0 57 136 37 156 -10 10 -8 71 2 117 5 21 6 36 3 32
-4 -3 -12 9 -18 27 -6 18 -17 32 -23 31 -6 -2 -11 2 -11 7 0 6 -11 15 -25 20
-14 5 -49 25 -78 43 -52 34 -115 70 -194 112 -23 13 -39 26 -36 29 4 3 -3 6
-15 6 -12 0 -22 5 -22 11 0 5 -4 7 -10 4 -6 -3 -10 -3 -10 2 0 11 -62 47 -76
45 -7 -1 -14 4 -18 13 -3 8 -10 15 -16 15 -6 0 -36 16 -66 35 -30 19 -56 35
-58 35 -9 0 -161 93 -167 102 -3 5 -10 10 -15 10 -22 0 -123 64 -119 75 2 8
-2 10 -12 6 -12 -5 -14 -3 -8 7 5 9 4 11 -4 6 -6 -4 -26 1 -44 12 -32 20 -128
73 -178 99 -15 7 -32 20 -39 28 -7 8 -17 15 -23 15 -10 0 -58 27 -237 134 -88
53 -105 63 -180 105 -25 14 -46 29 -48 33 -2 4 -9 8 -16 8 -7 0 -32 14 -54 30
-23 17 -42 27 -42 23 0 -5 -5 0 -11 10 -6 9 -14 15 -19 12 -5 -3 -31 9 -57 28
-26 18 -66 42 -88 53 -22 10 -48 27 -59 37 -11 9 -28 17 -38 17 -11 0 -16 5
-13 10 3 6 2 10 -4 10 -14 0 -51 17 -86 40 -16 10 -49 29 -72 41 -24 13 -43
26 -43 30 0 4 -16 14 -35 23 -42 20 -39 -27 -39 497 -1 451 -5 427 66 382 21
-12 42 -23 48 -23 5 0 10 -4 10 -9 0 -5 14 -14 30 -20 17 -5 45 -21 63 -33 44
-31 87 -56 120 -69 15 -6 27 -16 27 -22 0 -6 3 -7 6 -4 4 4 19 -3 35 -14 15
-11 44 -26 63 -34 20 -9 36 -20 36 -26 0 -5 4 -8 9 -5 4 3 21 -5 37 -19 15
-13 31 -22 34 -20 4 2 22 -7 41 -21 19 -14 62 -39 95 -55 34 -17 70 -39 79
-49 10 -11 22 -17 27 -14 5 4 23 -7 40 -22 17 -16 27 -22 23 -14 -5 8 4 4 18
-9 15 -14 27 -21 27 -17 0 4 7 0 16 -8 8 -9 22 -16 30 -16 8 0 14 -5 14 -11 0
-5 5 -7 10 -4 6 3 10 1 10 -4 0 -6 3 -10 8 -9 7 3 83 -41 92 -53 3 -3 30 -19
60 -34 30 -15 58 -33 62 -39 4 -6 8 -7 8 -3 0 5 13 -1 29 -12 16 -12 34 -21
41 -21 6 0 8 -4 5 -10 -4 -6 1 -7 12 -3 10 3 15 2 10 -2 -4 -5 10 -17 30 -27
21 -10 61 -32 88 -48 28 -17 66 -38 85 -48 19 -9 49 -27 67 -39 17 -13 34 -23
38 -23 4 0 35 -17 69 -37 33 -21 64 -37 69 -35 4 1 7 -2 7 -8 0 -5 5 -10 10
-10 6 0 27 -11 48 -23 20 -13 51 -32 67 -43 17 -10 32 -19 35 -19 3 0 21 -10
41 -23 20 -12 40 -22 43 -22 4 0 28 -14 54 -32 26 -18 48 -32 49 -31 1 1 26
-13 55 -32 29 -19 58 -35 64 -35 6 0 28 -13 48 -29 23 -18 44 -27 53 -24 11 4
14 2 9 -5 -10 -16 6 -15 29 2 18 13 19 29 20 192 0 197 -2 203 -63 229 -18 8
-40 21 -49 30 -8 9 -22 14 -30 11 -8 -3 -12 -2 -9 2 4 7 -100 71 -189 115 -22
10 -47 26 -57 34 -9 8 -23 16 -32 17 -8 1 -23 9 -33 17 -19 15 -33 23 -121 70
-31 17 -61 35 -67 39 -5 4 -30 19 -55 32 -25 14 -67 39 -95 55 -27 17 -99 58
-160 91 -60 34 -115 66 -122 71 -7 6 -14 11 -16 11 -2 0 -44 23 -93 51 -125
72 -153 89 -199 114 -22 12 -69 38 -103 58 -35 21 -70 37 -78 37 -8 0 -14 4
-14 8 0 4 -19 18 -42 30 -24 12 -72 40 -107 62 -34 22 -65 40 -67 40 -3 0 -22
11 -44 25 -22 14 -40 23 -40 19 0 -3 -18 8 -39 25 -21 17 -44 31 -49 31 -6 0
-41 19 -77 43 -37 23 -70 41 -74 40 -3 -1 -13 4 -21 11 -8 7 -23 16 -33 19
-11 4 -15 12 -11 18 4 7 3 9 -4 5 -6 -3 -46 13 -89 37 -109 60 -106 59 -160
30z m158 -61 c94 -52 238 -135 374 -214 28 -16 462 -264 965 -552 l915 -523 3
-182 2 -182 -37 25 c-21 13 -164 97 -318 186 -154 89 -309 179 -345 200 -90
53 -481 278 -680 392 -91 52 -361 208 -602 346 -240 139 -439 252 -442 252 -3
0 -6 -216 -6 -479 l0 -480 93 -54 c97 -58 1172 -686 1317 -770 47 -27 295
-173 553 -324 l467 -275 0 -153 0 -153 -87 52 c-92 55 -296 175 -1243 729
-973 568 -1090 637 -1093 637 -1 0 -2 -216 -2 -479 l0 -480 110 -64 c61 -36
196 -116 300 -178 105 -62 226 -133 270 -159 44 -26 204 -120 355 -210 742
-440 1137 -674 1155 -684 59 -33 235 -139 235 -142 0 -1 -24 -16 -52 -32 -29
-16 -86 -48 -126 -71 l-72 -43 -368 218 c-202 119 -403 238 -447 264 -89 52
-228 135 -600 355 -235 140 -508 301 -830 491 l-140 82 -3 1280 -2 1280 132
75 c73 42 136 76 139 77 4 0 53 -26 110 -58z m-404 -2604 c-3 -8 -6 -5 -6 6
-1 11 2 17 5 13 3 -3 4 -12 1 -19z"/>
<path d="M1440 5338 c-190 -109 -369 -211 -397 -226 l-53 -26 0 -1208 c0 -664
-4 -1208 -8 -1208 -5 0 -60 -33 -123 -73 -63 -40 -120 -76 -127 -81 -10 -6
-12 233 -10 1203 2 666 3 1211 2 1211 0 0 -144 -82 -320 -183 -175 -101 -338
-194 -361 -207 -24 -13 -43 -30 -43 -38 0 -12 3 -12 17 -1 15 12 16 12 8 -1
-6 -11 -3 -10 12 3 11 9 22 16 24 15 2 -2 3 -1 2 1 -1 2 17 13 40 26 116 62
209 115 217 124 7 8 52 34 125 71 33 16 69 36 80 43 64 41 96 57 90 47 -5 -8
0 -7 13 1 12 7 19 16 16 20 -5 9 35 23 42 16 3 -3 5 -525 4 -1161 0 -1036 1
-1159 15 -1187 9 -17 21 -28 28 -25 7 3 20 9 30 12 9 4 17 10 17 15 0 5 3 8 8
7 18 -3 105 50 124 77 4 5 8 6 8 2 0 -5 7 -2 15 7 9 8 23 12 33 9 9 -3 14 -3
10 2 -4 4 3 18 16 30 23 21 23 24 24 241 0 120 1 379 2 574 0 195 0 360 0 365
-1 6 -1 249 -1 540 1 292 1 567 1 611 l0 82 38 20 c83 44 107 58 120 70 12 11
21 14 38 11 4 0 10 4 13 9 7 11 58 43 111 70 34 17 94 54 152 94 15 10 32 18
39 18 6 0 24 9 40 21 16 11 54 33 84 48 30 15 52 31 48 35 -4 4 0 4 10 0 9 -3
17 -2 17 4 0 5 9 12 20 15 19 5 19 -11 19 -1402 0 -1328 3 -1461 26 -1461 4 0
3 6 0 13 -4 6 0 5 7 -3 18 -20 75 -60 86 -60 5 0 15 -7 22 -15 7 -9 15 -13 17
-11 6 5 25 -9 51 -36 9 -10 21 -18 27 -18 5 0 3 5 -5 10 -10 7 -11 10 -2 10 7
0 15 -7 18 -15 4 -9 25 -25 48 -36 56 -27 143 -78 190 -111 22 -15 43 -25 48
-22 4 3 8 0 8 -5 0 -6 5 -11 11 -11 6 0 25 -11 43 -25 18 -14 38 -25 44 -25 6
0 12 -3 14 -7 4 -10 81 -47 91 -45 5 2 6 -2 2 -7 -3 -6 11 -17 31 -26 21 -8
66 -33 101 -55 34 -22 65 -40 67 -40 3 0 25 -13 48 -29 52 -34 266 -161 273
-161 3 0 14 -8 25 -18 11 -9 24 -17 28 -18 21 -2 41 -17 35 -27 -3 -5 -2 -7 4
-4 5 3 35 -10 67 -29 31 -18 62 -34 67 -34 6 0 7 -5 3 -12 -4 -6 -3 -8 3 -5 6
4 30 -8 54 -26 24 -18 59 -39 76 -46 18 -7 54 -28 80 -47 25 -18 50 -31 55
-28 4 3 8 1 8 -4 0 -5 13 -15 30 -22 16 -7 27 -17 23 -23 -3 -5 -1 -7 4 -4 6
4 59 -22 117 -58 58 -36 109 -65 114 -65 4 0 45 -25 91 -55 46 -30 91 -57 100
-60 10 -3 26 -13 37 -23 10 -9 39 -27 64 -40 25 -12 71 -38 102 -56 31 -19 59
-32 62 -30 3 2 4 1 1 -2 -2 -4 13 -16 35 -26 22 -11 37 -25 33 -31 -3 -5 -2
-7 3 -4 6 3 16 2 23 -3 10 -6 8 -9 -8 -15 -11 -3 -21 -11 -21 -16 0 -5 -4 -9
-9 -9 -8 0 -63 -30 -153 -85 -89 -54 -127 -75 -137 -75 -7 0 -10 -4 -7 -9 3
-5 -5 -12 -19 -15 -14 -4 -25 -11 -25 -17 0 -6 -4 -7 -10 -4 -5 3 -10 1 -10
-5 0 -6 -4 -8 -10 -5 -5 3 -10 2 -10 -3 0 -6 -11 -13 -25 -16 -14 -4 -23 -11
-20 -16 3 -6 0 -10 -8 -10 -8 0 -26 -9 -41 -21 -14 -11 -26 -17 -26 -12 0 4
-4 4 -8 -2 -4 -5 -23 -18 -42 -28 -19 -9 -59 -31 -88 -48 l-53 -30 -73 45
c-41 25 -79 46 -85 46 -7 0 -9 5 -5 12 4 6 3 8 -4 4 -6 -3 -13 -2 -16 3 -3 5
-25 19 -48 31 -24 12 -45 25 -48 29 -3 3 -23 15 -45 26 -22 11 -70 39 -106 62
-36 24 -71 43 -76 43 -5 0 -35 18 -66 40 -30 22 -62 40 -70 40 -8 0 -22 9 -32
20 -10 11 -27 20 -37 20 -11 0 -16 5 -13 10 3 6 -3 10 -14 10 -12 0 -21 4 -21
9 0 5 -8 11 -17 15 -10 3 -54 28 -98 56 -44 28 -102 63 -130 77 -27 14 -52 29
-55 32 -3 4 -27 20 -55 35 -27 16 -61 35 -75 43 -14 8 -38 23 -55 33 -16 11
-44 26 -61 34 -17 7 -50 28 -74 45 -24 17 -47 31 -52 31 -6 0 -19 10 -30 23
-11 12 -17 16 -13 10 3 -7 1 -13 -4 -13 -6 0 -11 4 -11 9 0 5 -13 14 -30 21
-16 7 -30 16 -30 21 0 4 -10 11 -22 15 -13 4 -39 17 -58 29 -19 12 -48 30 -65
41 -16 10 -33 17 -37 16 -5 -1 -8 2 -8 6 0 5 -12 14 -27 21 -25 11 -101 59
-113 71 -3 3 -12 6 -20 8 -8 2 -22 10 -31 18 -8 8 -19 14 -22 14 -4 0 -37 19
-74 42 -83 50 -127 76 -173 100 -19 10 -30 18 -25 18 6 0 -10 11 -35 24 -98
53 -139 72 -134 64 4 -5 0 -9 -7 -8 -19 3 -59 -11 -59 -20 0 -11 -51 -31 -62
-24 -6 4 -8 2 -5 -4 4 -6 -12 -19 -38 -32 -25 -12 -45 -24 -45 -26 0 -3 6 -2
13 2 6 4 9 4 5 0 -3 -4 -21 -16 -40 -26 -18 -10 -32 -23 -31 -29 2 -6 -1 -11
-7 -11 -5 0 -7 -7 -4 -15 6 -14 53 -44 176 -114 97 -54 115 -65 165 -97 30
-19 52 -38 49 -43 -3 -4 6 -6 19 -3 17 3 27 -1 31 -12 3 -9 15 -16 26 -16 12
0 17 -4 12 -12 -4 -6 -3 -8 3 -5 6 4 29 -7 52 -23 22 -17 45 -30 51 -30 5 0
10 -4 10 -10 0 -5 7 -7 15 -4 8 4 15 1 15 -5 0 -6 7 -11 16 -11 9 0 12 -5 8
-12 -4 -7 -4 -10 0 -6 5 4 26 -4 47 -18 21 -13 41 -24 44 -24 3 0 27 -16 53
-35 27 -19 51 -32 54 -30 3 3 11 -1 18 -10 7 -8 17 -15 23 -15 6 0 18 -6 26
-14 9 -8 23 -16 31 -18 8 -2 23 -12 33 -22 9 -10 17 -16 17 -12 0 4 12 -2 26
-13 15 -12 32 -21 39 -21 7 0 18 -7 25 -15 10 -12 47 -35 145 -91 40 -22 91
-52 143 -82 28 -17 52 -29 52 -26 0 2 10 -4 21 -15 12 -11 40 -29 63 -41 23
-11 55 -29 71 -39 112 -70 150 -91 163 -91 7 0 10 -5 7 -10 -4 -6 -3 -9 2 -8
5 2 42 -18 81 -44 40 -26 70 -42 66 -37 -6 10 75 -39 86 -52 3 -3 34 -22 70
-43 86 -49 99 -57 137 -83 17 -13 39 -23 48 -23 10 0 13 -5 9 -12 -4 -7 -4
-10 0 -6 10 8 89 -35 94 -51 2 -7 -5 -15 -17 -18 -12 -3 -21 -9 -21 -13 0 -5
-9 -11 -19 -15 -11 -3 -36 -17 -55 -30 -20 -13 -36 -21 -36 -18 0 4 -10 -2
-22 -13 -35 -29 -68 -45 -79 -39 -5 4 -8 3 -7 -2 2 -4 -1 -9 -6 -10 -5 -1 -12
-6 -15 -11 -3 -5 -28 -21 -56 -36 -27 -14 -68 -37 -90 -51 -22 -14 -49 -29
-60 -34 -11 -5 -44 -25 -73 -46 -33 -22 -60 -34 -70 -30 -9 3 -13 3 -10 -1 4
-3 -7 -16 -25 -28 -55 -37 -61 -40 -52 -26 5 9 2 10 -12 6 -13 -4 -26 1 -38
14 -10 11 -24 20 -32 20 -8 0 -11 5 -7 12 5 7 3 8 -5 3 -7 -4 -22 1 -34 12
-12 11 -37 26 -54 33 -18 7 -33 16 -33 21 0 5 -7 9 -15 9 -8 0 -15 5 -15 11 0
5 -4 8 -9 4 -5 -3 -12 -1 -16 5 -3 6 -22 17 -41 25 -19 8 -34 18 -34 23 0 6
-7 13 -16 16 -10 4 -13 2 -8 -7 4 -6 -4 -3 -17 8 -44 37 -92 68 -84 54 7 -11
4 -11 -11 1 -10 8 -21 17 -24 20 -10 10 -45 30 -82 47 -21 10 -38 21 -38 25 0
5 -5 8 -10 8 -6 0 -33 16 -61 35 -28 19 -55 35 -59 35 -10 0 -140 78 -162 97
-9 8 -22 16 -30 17 -24 4 -88 48 -83 56 3 4 -4 6 -15 3 -11 -3 -20 -1 -20 5 0
5 -15 16 -32 23 -18 7 -42 22 -53 32 -11 10 -33 25 -50 33 -16 8 -39 20 -50
27 -36 22 -315 182 -343 196 -15 8 -30 20 -35 27 -4 7 -27 20 -52 30 -31 11
-44 22 -43 33 2 11 -5 16 -22 16 -14 1 -56 20 -94 43 -37 23 -72 42 -76 42 -5
0 -10 5 -12 10 -2 6 -14 12 -27 15 -14 2 -27 9 -30 14 -3 5 -40 28 -81 52 -41
23 -78 46 -81 51 -3 5 -9 9 -13 9 -7 -2 -69 29 -76 38 -8 9 -42 30 -70 42 -13
5 -27 14 -30 18 -3 4 -25 19 -50 33 -25 14 -82 46 -126 72 -89 50 -94 52 -94
34 0 -7 26 -28 58 -47 31 -18 161 -94 287 -169 127 -74 291 -171 365 -215 74
-44 151 -88 170 -99 19 -11 67 -39 105 -63 39 -23 275 -163 525 -310 250 -147
599 -353 774 -456 l319 -189 56 32 c31 17 182 106 336 196 154 91 306 179 338
197 l58 32 -143 85 c-79 47 -278 165 -443 263 -165 98 -430 255 -590 350 -386
229 -853 506 -1050 623 -88 52 -161 96 -163 97 -2 2 19 16 45 32 27 17 85 53
129 81 l81 50 44 -28 c24 -15 145 -87 269 -160 580 -342 991 -586 1055 -624
39 -24 158 -95 265 -158 107 -64 322 -190 476 -282 155 -91 284 -166 288 -166
4 0 171 97 371 215 201 118 379 222 396 231 l31 16 -63 37 c-35 21 -197 117
-359 213 -162 97 -428 254 -590 350 -162 96 -464 275 -670 397 -206 123 -509
302 -672 399 l-298 176 0 1443 c0 794 -3 1443 -7 1442 -5 -1 -163 -91 -353
-201z m-560 -4272 c0 -3 -4 -8 -10 -11 -5 -3 -10 -1 -10 4 0 6 5 11 10 11 6 0
10 -2 10 -4z"/>
<path d="M1398 5031 c-71 -38 -128 -66 -128 -63 0 3 -9 -5 -20 -18 -11 -13
-20 -37 -21 -54 -1 -35 0 -721 1 -1676 1 -355 -2 -653 -5 -662 -8 -21 -113
-90 -125 -83 -6 4 -10 2 -10 -4 0 -10 -85 -71 -99 -71 -4 0 -26 -13 -47 -28
-21 -16 -47 -31 -56 -35 -10 -3 -18 -11 -18 -17 0 -6 -4 -9 -9 -5 -5 3 -15 0
-23 -7 -7 -7 -20 -14 -28 -16 -8 -2 -24 -12 -35 -22 -11 -10 -33 -25 -50 -34
-43 -23 -69 -40 -75 -48 -3 -3 -11 -8 -19 -10 -8 -2 -25 -13 -39 -25 -14 -13
-31 -23 -38 -23 -7 0 -19 -7 -27 -15 -40 -40 -39 -67 -43 1140 -1 638 -3 1172
-3 1186 -1 17 -9 29 -25 37 -14 6 -26 8 -28 4 -2 -4 -28 -20 -58 -36 -30 -16
-57 -32 -60 -36 -3 -4 -24 -17 -46 -29 -35 -20 -43 -30 -48 -63 -4 -21 -6
-617 -6 -1323 1 -1197 2 -1285 18 -1304 9 -11 33 -28 52 -39 19 -11 62 -35 95
-54 33 -19 71 -41 85 -49 14 -8 27 -17 30 -20 3 -4 25 -17 50 -29 25 -13 59
-33 75 -45 17 -12 56 -35 87 -50 31 -16 54 -34 51 -39 -3 -5 -1 -6 5 -2 6 4
20 -2 30 -12 10 -10 24 -16 32 -14 8 3 10 0 6 -7 -4 -6 -4 -11 1 -10 14 3 87
-32 123 -60 19 -15 51 -35 71 -44 19 -9 51 -30 70 -46 19 -17 41 -31 49 -31 8
0 39 -16 67 -35 29 -19 55 -35 58 -35 3 0 24 -12 47 -26 23 -14 47 -27 54 -28
7 -1 21 -9 31 -18 38 -34 205 -128 215 -122 7 4 8 2 4 -4 -4 -7 2 -16 16 -21
13 -5 64 -34 113 -65 50 -31 97 -59 105 -63 8 -3 27 -14 41 -24 14 -10 29 -16
33 -12 3 3 6 1 6 -6 0 -7 4 -10 9 -7 5 3 11 0 14 -8 3 -7 28 -24 56 -37 28
-12 51 -27 51 -31 0 -5 4 -7 9 -4 5 3 14 0 20 -8 7 -8 36 -26 66 -41 30 -14
55 -31 55 -36 0 -5 6 -9 13 -9 7 0 36 -16 64 -35 29 -19 57 -35 63 -35 5 0 10
-4 10 -8 0 -5 16 -14 35 -22 19 -8 35 -17 35 -22 0 -4 5 -8 11 -8 7 0 42 -19
78 -42 36 -23 77 -41 89 -40 28 2 82 31 99 52 7 8 13 12 13 8 0 -4 21 6 47 22
26 17 52 30 57 30 6 0 20 12 33 26 18 21 20 30 12 46 -6 10 -17 22 -25 25 -7
3 -11 10 -7 16 3 5 1 7 -5 3 -6 -3 -37 10 -70 29 -33 19 -65 35 -70 35 -5 0
-17 9 -27 20 -10 11 -27 20 -37 20 -10 0 -21 7 -24 15 -4 8 -10 15 -16 15 -5
0 -24 11 -42 25 -18 14 -37 25 -43 25 -5 0 -28 13 -50 29 -23 16 -49 31 -59
33 -11 2 -28 11 -38 20 -11 10 -36 26 -57 36 -21 11 -35 23 -31 27 4 5 2 5 -4
2 -6 -4 -29 6 -51 21 -37 26 -65 43 -108 67 -21 11 -86 50 -120 73 -11 6 -31
18 -45 24 -14 7 -27 15 -30 18 -5 5 -16 12 -125 73 -38 22 -78 46 -87 55 -10
8 -18 11 -18 6 0 -5 -4 -4 -8 2 -4 6 -34 26 -67 44 -33 18 -67 39 -75 45 -8 7
-35 24 -60 37 -77 42 -110 63 -110 70 0 4 -7 4 -17 1 -11 -4 -14 -3 -9 5 5 8
0 12 -12 12 -10 0 -27 9 -37 20 -11 12 -25 18 -34 15 -8 -3 -12 -3 -8 1 6 7
-133 94 -151 94 -5 0 -15 7 -22 15 -7 8 -37 27 -68 42 -31 15 -75 42 -98 59
-23 18 -45 30 -48 27 -3 -4 -6 -1 -6 5 0 7 -5 12 -12 12 -12 0 -298 170 -298
177 0 2 4 2 9 -1 5 -4 11 -2 13 3 1 5 30 23 62 40 32 17 55 31 50 31 -9 0 25
22 56 36 8 4 31 19 50 33 19 14 38 27 43 27 4 1 11 2 16 3 5 0 16 7 23 14 14
14 112 78 138 90 8 4 29 16 45 27 17 11 37 23 45 27 8 4 37 23 63 42 26 20 50
34 52 31 2 -3 15 5 28 18 14 13 32 25 42 26 9 1 20 7 23 13 4 6 35 26 68 45
34 18 77 45 95 61 18 15 38 27 44 27 6 0 18 11 25 25 7 13 16 22 20 20 6 -4 6
2529 0 2567 -2 9 -7 15 -11 12 -4 -2 -9 0 -11 6 -1 5 -60 -22 -130 -59z m131
-1243 l0 -1283 -177 -109 c-97 -60 -325 -201 -505 -313 -181 -113 -335 -207
-343 -210 -22 -8 -17 -16 24 -39 20 -11 98 -57 172 -101 74 -44 286 -169 470
-278 184 -109 427 -253 540 -320 113 -67 306 -182 430 -255 124 -73 336 -199
471 -279 l246 -146 -125 -73 -124 -72 -497 294 c-641 378 -899 531 -1151 681
-113 67 -284 168 -380 225 -96 57 -212 125 -258 152 l-82 50 2 1315 3 1315 95
55 c52 30 100 57 105 59 7 3 10 -403 10 -1206 0 -665 1 -1210 2 -1210 3 0 100
60 505 309 l298 183 2 1196 3 1196 125 72 c69 40 128 72 133 73 4 1 7 -576 6
-1281z"/>
<path d="M2800 4896 c-5 -6 -10 -82 -11 -168 -3 -181 -2 -185 91 -228 28 -13
50 -27 50 -32 0 -4 4 -8 10 -8 11 0 178 -96 201 -116 9 -8 18 -11 22 -8 3 3
16 -3 28 -15 13 -12 28 -21 35 -21 6 0 34 -15 60 -33 65 -44 187 -112 197
-109 4 1 7 -3 7 -8 0 -6 7 -10 15 -10 8 0 24 -9 35 -20 11 -11 22 -20 25 -20
3 0 29 -16 58 -35 28 -19 60 -35 69 -35 10 0 18 -4 18 -10 0 -5 5 -10 11 -10
6 0 25 -11 42 -23 18 -13 47 -30 65 -37 17 -7 32 -16 32 -21 0 -5 5 -9 10 -9
6 0 29 -12 53 -27 62 -40 120 -72 140 -79 9 -4 17 -10 17 -15 0 -5 5 -9 10 -9
6 0 43 -19 83 -43 39 -24 91 -53 114 -65 23 -11 51 -29 63 -39 11 -10 24 -18
28 -18 11 -1 99 -52 173 -101 36 -24 71 -44 77 -44 7 0 12 -5 12 -10 0 -6 3
-9 8 -8 11 4 71 -35 66 -43 -2 -4 5 -5 16 -2 12 3 22 -1 26 -11 3 -9 14 -16
23 -16 10 0 27 -9 39 -20 12 -12 22 -17 22 -13 0 4 7 -2 16 -13 8 -10 12 -12
8 -4 -7 13 7 3 72 -50 7 -5 14 -6 17 -4 3 3 32 -13 65 -35 33 -23 65 -41 71
-41 6 0 11 -4 11 -9 0 -5 7 -12 16 -15 10 -4 13 -2 7 7 -4 6 8 0 26 -15 34
-29 66 -37 59 -15 -3 6 -92 63 -199 126 -107 63 -270 159 -364 214 -93 55
-539 315 -990 578 -451 263 -826 482 -833 486 -10 6 -12 45 -10 165 l3 157
355 -206 c195 -113 732 -426 1193 -694 460 -269 839 -489 842 -489 3 0 5 7 5
15 0 8 -4 15 -8 15 -5 0 -17 7 -28 16 -18 14 -18 15 6 4 23 -10 24 -10 6 4
-10 9 -23 13 -28 10 -5 -3 -26 6 -47 20 -21 15 -56 37 -79 49 -97 52 -127 70
-140 83 -7 8 -19 14 -26 14 -7 0 -25 9 -40 21 -30 23 -88 57 -153 89 -24 11
-43 25 -43 31 0 6 -4 7 -10 4 -5 -3 -10 -1 -10 6 0 7 -3 9 -6 6 -4 -4 -21 4
-38 16 -17 12 -33 22 -36 22 -10 1 -90 52 -88 56 2 2 1 3 -1 2 -5 -3 -91 46
-112 64 -9 7 -19 10 -22 6 -4 -3 -7 -1 -7 5 0 7 -7 12 -15 12 -8 0 -15 5 -15
11 0 5 -4 8 -9 5 -5 -3 -19 3 -32 13 -13 10 -34 21 -46 25 -13 4 -23 12 -23
17 0 6 -4 7 -10 4 -5 -3 -10 -1 -10 4 0 6 -5 11 -11 11 -6 0 -23 8 -37 19 -15
10 -58 35 -97 56 -38 21 -82 49 -97 62 -14 14 -31 22 -37 19 -6 -4 -11 -3 -11
1 0 8 -89 61 -181 108 -22 11 -36 24 -32 29 4 4 3 6 -2 5 -16 -5 -58 12 -80
31 -11 10 -30 21 -43 25 -13 4 -19 11 -16 17 5 7 1 9 -9 5 -10 -3 -17 -3 -17
2 0 5 -24 20 -53 34 -48 23 -116 63 -143 86 -6 5 -21 12 -35 16 -13 4 -34 17
-46 28 -13 11 -23 17 -23 13 0 -5 -15 3 -32 16 -18 14 -58 38 -88 53 -30 15
-69 38 -86 51 -17 13 -34 24 -38 24 -3 0 -23 11 -44 23 -40 26 -67 30 -82 13z"/>
<path d="M2795 3613 c-6 -10 -10 -82 -10 -163 0 -133 2 -148 21 -173 12 -14
24 -23 28 -20 3 3 6 0 6 -7 0 -7 3 -10 7 -7 3 4 12 -1 20 -11 8 -9 11 -11 8
-4 -6 11 -3 11 13 1 12 -7 19 -17 16 -21 -3 -4 1 -5 9 -2 8 3 18 0 23 -7 5 -8
3 -10 -6 -4 -9 5 -11 4 -6 -4 4 -6 12 -9 17 -6 5 4 28 -7 51 -23 24 -15 58
-34 76 -41 17 -8 32 -18 32 -24 0 -6 3 -7 7 -4 3 4 14 0 23 -8 18 -17 92 -59
133 -77 15 -7 27 -16 27 -20 0 -4 6 -8 14 -8 8 0 16 -4 18 -9 3 -7 97 -64 188
-113 19 -10 53 -30 75 -44 22 -14 48 -27 57 -31 10 -3 15 -9 12 -14 -3 -5 2
-6 10 -3 9 3 16 1 16 -5 0 -6 5 -11 11 -11 6 0 29 -13 52 -29 62 -41 101 -65
112 -67 6 -1 31 -16 57 -33 25 -17 49 -31 53 -31 3 0 21 -11 39 -25 18 -14 38
-25 44 -25 7 0 12 -5 12 -11 0 -5 4 -8 9 -5 5 3 14 -1 21 -9 7 -8 19 -15 27
-15 8 0 11 -5 8 -11 -4 -6 -1 -9 6 -8 8 2 34 -10 59 -26 25 -16 47 -30 50 -30
5 -1 45 -25 152 -92 29 -18 58 -33 65 -33 7 0 13 -4 13 -10 0 -5 8 -10 19 -10
10 0 24 -7 32 -16 17 -20 65 -45 73 -37 3 4 6 -2 6 -12 0 -10 3 -15 6 -12 4 4
19 -2 34 -13 16 -11 32 -20 37 -20 4 0 31 -16 58 -36 28 -19 71 -47 97 -61 26
-14 45 -30 42 -34 -3 -5 1 -6 9 -3 8 3 38 -11 67 -30 30 -20 79 -48 109 -63
53 -27 61 -32 96 -61 8 -7 15 -10 15 -7 0 3 9 1 20 -5 15 -8 20 -8 20 2 0 8
-111 79 -247 159 -137 80 -320 189 -408 241 -1022 607 -1527 905 -1667 986
l-78 44 0 154 c0 85 2 154 4 154 5 0 425 -246 811 -475 132 -78 445 -263 695
-410 378 -222 635 -374 858 -507 l32 -20 0 27 c0 15 -4 24 -10 20 -12 -8 -62
30 -52 39 3 4 -1 4 -10 1 -15 -6 -78 29 -86 48 -2 4 -10 7 -17 7 -7 0 -39 18
-71 39 -33 22 -61 38 -63 36 -2 -2 -18 6 -35 19 -17 13 -49 33 -71 45 -22 12
-61 35 -87 51 -25 15 -49 26 -52 23 -3 -4 -6 -1 -6 5 0 6 -16 19 -35 28 -19 9
-32 21 -28 27 4 6 1 7 -6 2 -8 -4 -24 1 -39 12 -15 11 -43 28 -62 38 -19 10
-41 25 -48 34 -8 9 -10 10 -6 2 4 -8 -13 -1 -37 16 -24 17 -62 40 -84 52 -99
55 -131 74 -145 85 -8 8 -37 25 -65 38 -82 42 -108 56 -114 65 -8 11 -62 43
-84 50 -11 3 -16 11 -12 21 4 11 2 12 -8 4 -9 -8 -25 -2 -62 23 -28 19 -55 34
-61 35 -6 0 -19 9 -29 20 -10 11 -22 20 -28 20 -5 0 -22 9 -38 21 -16 11 -29
17 -29 14 0 -4 -7 1 -16 9 -8 9 -21 16 -29 16 -7 0 -16 7 -19 15 -3 9 -14 15
-23 13 -11 -2 -17 2 -15 10 1 8 -1 11 -6 8 -5 -3 -25 6 -45 19 -20 14 -40 25
-45 25 -5 0 -27 13 -48 28 -21 16 -53 35 -71 42 -17 8 -29 18 -27 22 3 5 2 7
-3 6 -8 -2 -74 30 -83 41 -3 4 -16 12 -30 19 -40 20 -135 75 -140 81 -3 3 -30
19 -60 35 -30 16 -64 37 -75 47 -11 9 -36 20 -55 24 -28 5 -37 2 -45 -12z"/>
<path d="M1700 2349 c-25 -15 -52 -34 -60 -42 -8 -8 -31 -22 -50 -31 -51 -24
-68 -39 -79 -69 -9 -22 -8 -27 5 -27 8 0 13 -4 10 -8 -3 -5 10 -16 29 -25 19
-9 35 -21 35 -27 0 -5 3 -9 8 -8 18 5 53 -15 48 -27 -3 -9 0 -12 8 -9 8 3 42
-12 77 -33 35 -21 76 -45 92 -52 15 -8 27 -18 27 -23 0 -4 9 -8 20 -8 10 0 27
-8 37 -19 10 -10 34 -26 53 -36 19 -10 38 -23 42 -29 4 -6 8 -8 8 -4 0 4 22
-6 49 -22 26 -17 51 -30 54 -30 6 0 96 -59 107 -70 3 -3 11 -6 18 -8 16 -3 74
-42 84 -57 4 -5 8 -6 8 -1 0 5 8 2 18 -6 9 -9 59 -39 110 -67 50 -29 92 -56
92 -62 0 -5 7 -9 16 -9 9 0 39 -13 66 -30 26 -16 52 -30 57 -30 5 0 11 -7 15
-15 3 -8 11 -15 17 -15 13 0 182 -101 187 -112 2 -5 9 -8 14 -8 13 0 197 -108
216 -127 8 -7 18 -11 23 -8 5 4 9 2 9 -2 0 -5 22 -20 49 -34 27 -13 47 -27 44
-32 -2 -4 -1 -6 4 -5 14 4 122 -55 117 -64 -3 -5 -2 -7 3 -6 9 2 75 -31 83
-42 3 -4 21 -15 40 -24 19 -9 49 -25 65 -36 50 -33 99 -52 103 -40 2 5 10 10
17 10 7 0 15 3 17 8 5 12 84 52 104 53 11 0 14 3 6 6 -7 2 10 16 38 30 27 14
50 29 50 34 0 6 5 7 10 4 6 -4 10 5 8 24 -2 23 -11 35 -43 52 -37 21 -96 59
-120 76 -6 5 -17 9 -24 11 -7 1 -27 12 -44 24 -68 46 -84 56 -162 98 -44 24
-98 56 -120 70 -61 41 -104 66 -172 99 -35 17 -63 34 -63 38 0 5 -22 19 -50
32 -27 13 -50 28 -50 33 0 5 -4 6 -10 3 -5 -3 -10 -1 -10 5 0 6 -4 8 -10 5 -5
-3 -10 -3 -10 2 0 4 -12 17 -27 27 -14 11 -23 14 -19 8 4 -7 -18 6 -50 28 -32
22 -61 40 -65 40 -4 0 -31 16 -60 35 -30 19 -61 35 -71 35 -9 0 -21 6 -25 13
-10 14 -56 47 -98 67 -16 8 -43 24 -60 36 -16 12 -55 35 -85 51 -79 43 -104
57 -110 64 -5 6 -120 73 -173 101 -18 9 -37 22 -44 28 -7 5 -25 16 -40 22 -15
7 -30 16 -33 19 -3 4 -33 23 -68 44 -34 20 -60 40 -58 44 3 4 -1 8 -9 8 -8 0
-11 -5 -8 -11 4 -6 -2 -4 -13 5 -31 25 -130 78 -156 82 -13 3 -41 -7 -68 -24z
m335 -154 c138 -81 360 -213 495 -293 135 -80 306 -182 382 -226 75 -45 330
-196 567 -336 237 -140 430 -257 430 -260 0 -3 -56 -38 -125 -77 l-125 -73
-62 39 c-34 21 -161 97 -282 168 -260 154 -688 408 -1320 783 -253 150 -464
275 -468 277 -5 3 13 18 40 34 26 15 82 50 123 77 41 27 80 46 85 42 6 -4 123
-74 260 -155z"/>
</g>
</svg>